<svg width="32" height="52" viewBox="0 0 32 52" fill="none" xmlns="http://www.w3.org/2000/svg">
<path d="M0 12C0 5.37258 5.37258 0 12 0H32V52H12C5.37258 52 0 46.6274 0 40V12Z" fill="#003CAA"/>
<path d="M15.9994 6.99965L16.2453 7.77716L17.03 7.78087L16.3973 8.26511L16.6364 9.04492L15.9994 8.5667L15.3624 9.04492L15.6016 8.26511L14.9688 7.78087L15.7535 7.77716L15.9994 6.99965Z" fill="#FDCB00"/>
<path d="M12.101 8.08363L12.3468 8.86114L13.1316 8.86486L12.4988 9.3491L12.738 10.1289L12.101 9.65068L11.464 10.1289L11.7031 9.3491L11.0703 8.86486L11.8551 8.86114L12.101 8.08363Z" fill="#FDCB00"/>
<path d="M9.19861 10.8532L9.44449 11.6306L10.2293 11.6343L9.59651 12.1186L9.83563 12.8984L9.19861 12.4202L8.56167 12.8984L8.80079 12.1186L8.16797 11.6343L8.95273 11.6306L9.19861 10.8532Z" fill="#FDCB00"/>
<path d="M8.03064 14.9782L8.27652 15.7557L9.06128 15.7594L8.42854 16.2436L8.66759 17.0234L8.03064 16.5452L7.3937 17.0234L7.63275 16.2436L7 15.7594L7.78476 15.7557L8.03064 14.9782Z" fill="#FDCB00"/>
<path d="M9.33537 18.7946L9.58124 19.572L10.366 19.5757L9.73318 20.06L9.97229 20.8398L9.33537 20.3616L8.69837 20.8398L8.93748 20.06L8.30469 19.5757L9.08942 19.572L9.33537 18.7946Z" fill="#FDCB00"/>
<path d="M11.9642 21.5621L12.2101 22.3396L12.9949 22.3434L12.3621 22.8277L12.6012 23.6074L11.9642 23.1293L11.3273 23.6074L11.5663 22.8277L10.9336 22.3434L11.7184 22.3396L11.9642 21.5621Z" fill="#FDCB00"/>
<path d="M15.9994 22.9547L16.2453 23.7322L17.03 23.7359L16.3973 24.2202L16.6364 25L15.9994 24.5218L15.3624 25L15.6016 24.2202L14.9688 23.7359L15.7535 23.7322L15.9994 22.9547Z" fill="#FDCB00"/>
<path d="M20.0345 21.5621L20.2804 22.3396L21.0652 22.3434L20.4324 22.8277L20.6715 23.6074L20.0345 23.1293L19.3976 23.6074L19.6367 22.8277L19.0039 22.3434L19.7887 22.3396L20.0345 21.5621Z" fill="#FDCB00"/>
<path d="M22.6635 18.7946L22.9093 19.572L23.6941 19.5758L23.0613 20.06L23.3004 20.8398L22.6635 20.3616L22.0265 20.8398L22.2656 20.06L21.6328 19.5758L22.4176 19.572L22.6635 18.7946Z" fill="#FDCB00"/>
<path d="M23.9681 14.9782L24.214 15.7557L24.9988 15.7594L24.366 16.2436L24.6051 17.0234L23.9681 16.5452L23.3311 17.0234L23.5702 16.2436L22.9375 15.7594L23.7223 15.7557L23.9681 14.9782Z" fill="#FDCB00"/>
<path d="M22.8002 10.8532L23.0461 11.6306L23.8308 11.6343L23.1981 12.1186L23.4372 12.8984L22.8002 12.4202L22.1632 12.8984L22.4023 12.1186L21.7695 11.6343L22.5543 11.6306L22.8002 10.8532Z" fill="#FDCB00"/>
<path d="M19.8978 8.08363L20.1437 8.86114L20.9285 8.86486L20.2957 9.3491L20.5348 10.1289L19.8978 9.65068L19.2608 10.1289L19.4999 9.3491L18.8672 8.86486L19.6519 8.86114L19.8978 8.08363Z" fill="#FDCB00"/>
<path d="M9 46V37H10.1792L14.7417 44.0661V37H15.8438V46H14.6646L10.1021 38.9277V46H9Z" fill="#F6F6F6"/>
<path d="M17.5742 46V37H18.7238V44.9379H23.0018V46H17.5742Z" fill="#F6F6F6"/>
</svg>
